<svg width="500" height="347" viewBox="0 0 500 347" fill="none" xmlns="http://www.w3.org/2000/svg">
<path fill-rule="evenodd" clip-rule="evenodd" d="M146.175 206.238L152.681 241.726L121.288 248.243L114.896 212.206L146.175 206.238Z" fill="white"/>
<path fill-rule="evenodd" clip-rule="evenodd" d="M115.955 212.935L119.366 232.17C119.454 232.668 119.123 233.142 118.625 233.231C118.128 233.319 117.653 232.986 117.564 232.49L113.995 212.365C113.908 211.872 114.233 211.4 114.725 211.307L146.003 205.339C146.243 205.293 146.491 205.345 146.692 205.483C146.893 205.621 147.031 205.833 147.076 206.072L150.27 223.501C150.361 223.999 150.031 224.476 149.535 224.567C149.038 224.658 148.562 224.328 148.47 223.832L145.441 207.309L115.955 212.935Z" fill="#5B5B5B"/>
<path fill-rule="evenodd" clip-rule="evenodd" d="M151.619 241.012L148.47 223.832C148.379 223.334 148.708 222.858 149.205 222.766C149.701 222.676 150.179 223.005 150.27 223.501L153.58 241.561C153.671 242.049 153.354 242.52 152.867 242.622L121.474 249.139C121.231 249.19 120.979 249.139 120.775 249.001C120.57 248.862 120.43 248.646 120.386 248.403L117.564 232.49C117.476 231.993 117.808 231.517 118.305 231.429C118.803 231.34 119.278 231.672 119.366 232.17L122.024 247.155L151.619 241.012Z" fill="#5B5B5B"/>
<path fill-rule="evenodd" clip-rule="evenodd" d="M149.146 239.373L148.717 237.079L123.462 241.816L123.892 244.111L149.146 239.373ZM148.18 234.097L147.75 231.804L122.495 236.541L122.926 238.835L148.18 234.097ZM147.213 228.823L146.782 226.527L121.529 231.265L121.959 233.561L147.213 228.823ZM146.246 223.549L145.816 221.253L120.562 225.991L120.992 228.286L146.246 223.549ZM145.279 218.274L144.849 215.979L119.595 220.716L120.025 223.012L145.279 218.274ZM144.312 213L143.882 210.704L118.628 215.442L119.059 217.736L144.312 213Z" fill="#5B5B5B"/>
<path fill-rule="evenodd" clip-rule="evenodd" d="M150.852 203.607L171.25 233.366L145.235 252.106L124.717 221.799L150.852 203.607Z" fill="white"/>
<path fill-rule="evenodd" clip-rule="evenodd" d="M170.242 233.189L162.9 222.478C162.672 222.146 162.757 221.689 163.09 221.461C163.424 221.232 163.879 221.317 164.108 221.651L171.854 232.951C172.078 233.28 172 233.728 171.678 233.96L145.663 252.7C145.502 252.817 145.302 252.862 145.107 252.827C144.913 252.793 144.74 252.68 144.629 252.516L135.933 239.672C135.707 239.337 135.794 238.882 136.129 238.655C136.463 238.429 136.919 238.516 137.146 238.852L145.419 251.073L170.242 233.189Z" fill="#5B5B5B"/>
<path fill-rule="evenodd" clip-rule="evenodd" d="M125.728 221.987L137.146 238.852C137.372 239.185 137.284 239.642 136.95 239.867C136.615 240.095 136.16 240.006 135.933 239.672L124.111 222.209C123.886 221.878 123.97 221.426 124.299 221.198L150.433 203.006C150.593 202.894 150.791 202.851 150.983 202.887C151.175 202.921 151.345 203.032 151.455 203.192L164.108 221.651C164.336 221.985 164.251 222.44 163.918 222.67C163.585 222.897 163.128 222.812 162.9 222.478L150.665 204.628L125.728 221.987Z" fill="#5B5B5B"/>
<path fill-rule="evenodd" clip-rule="evenodd" d="M167.064 232.657L165.737 230.736L144.602 245.351L145.931 247.272L167.064 232.657ZM164.032 228.232L162.705 226.313L141.57 240.928L142.899 242.847L164.032 228.232ZM161 223.809L159.672 221.888L138.539 236.503L139.867 238.424L161 223.809ZM157.969 219.387L156.641 217.466L135.507 232.08L136.835 234.001L157.969 219.387ZM154.937 214.964L153.609 213.043L132.475 227.657L133.803 229.578L154.937 214.964ZM151.905 210.541L150.577 208.62L129.443 223.234L130.772 225.153L151.905 210.541Z" fill="#5B5B5B"/>
<path d="M204.952 319.792C208.31 332.65 221.581 340.317 234.594 336.918C247.606 333.519 255.432 320.341 252.074 307.484C248.716 294.627 235.444 286.959 222.432 290.358C209.42 293.757 201.593 306.935 204.952 319.792Z" fill="#E1E1E1"/>
<path fill-rule="evenodd" clip-rule="evenodd" d="M246.891 308.838C249.508 318.859 243.399 329.147 233.256 331.796C223.113 334.446 212.753 328.46 210.135 318.438C210.029 318.031 209.608 317.788 209.196 317.896C208.784 318.003 208.536 318.421 208.642 318.828C211.473 329.664 222.674 336.136 233.641 333.271C244.608 330.407 251.214 319.283 248.383 308.448C248.277 308.041 247.856 307.798 247.444 307.905C247.032 308.013 246.784 308.431 246.891 308.838Z" fill="#3F3D39"/>
<path fill-rule="evenodd" clip-rule="evenodd" d="M210.135 318.438C207.517 308.416 213.627 298.128 223.77 295.479C233.912 292.829 244.273 298.815 246.891 308.838C246.997 309.245 247.418 309.488 247.83 309.38C248.242 309.273 248.49 308.855 248.383 308.448C245.553 297.611 234.351 291.14 223.385 294.005C212.418 296.869 205.812 307.992 208.642 318.828C208.749 319.235 209.169 319.479 209.581 319.371C209.993 319.263 210.241 318.845 210.135 318.438Z" fill="#3F3D39"/>
<path fill-rule="evenodd" clip-rule="evenodd" d="M205.853 322.55L209.61 321.06C210.006 320.903 210.454 321.093 210.611 321.484C210.767 321.875 210.572 322.318 210.177 322.477L206.459 323.95C206.243 323.493 206.041 323.026 205.853 322.55ZM207.957 326.651L211.551 324.303C211.907 324.072 212.385 324.167 212.618 324.519C212.851 324.87 212.751 325.343 212.395 325.575L208.824 327.909C208.522 327.501 208.233 327.081 207.957 326.651ZM205.505 305.939L209.452 307.098C209.86 307.217 210.09 307.642 209.967 308.046C209.844 308.45 209.413 308.681 209.006 308.562L205.048 307.399C205.184 306.906 205.337 306.419 205.505 305.939ZM220.129 336.289L221.781 332.237C221.941 331.847 222.391 331.656 222.785 331.811C223.18 331.967 223.37 332.41 223.211 332.802L221.594 336.763C221.1 336.621 220.611 336.462 220.129 336.289ZM215.39 293.431L218.243 296.939C218.509 297.265 218.456 297.747 218.124 298.012C217.791 298.276 217.306 298.227 217.04 297.899L214.115 294.305C214.529 294.001 214.954 293.709 215.39 293.431ZM240.128 334.734C239.678 334.978 239.218 335.21 238.75 335.427L236.788 331.746C236.59 331.376 236.734 330.913 237.111 330.715C237.487 330.516 237.954 330.657 238.152 331.028L240.128 334.734ZM236.756 290.936L235.35 295.05C235.213 295.45 234.775 295.666 234.372 295.534C233.969 295.401 233.753 294.969 233.89 294.569L235.29 290.472C235.784 290.611 236.273 290.767 236.756 290.936ZM240.234 292.473L238.856 295.88C238.697 296.271 238.248 296.464 237.853 296.309C237.458 296.155 237.266 295.711 237.425 295.319L238.855 291.787C239.322 292 239.782 292.23 240.234 292.473ZM251.251 322.072C251.068 322.549 250.869 323.02 250.656 323.484L246.735 321.783C246.346 321.614 246.171 321.163 246.344 320.778C246.516 320.392 246.972 320.216 247.361 320.384L251.251 322.072ZM252.507 317.524C252.42 318.028 252.317 318.527 252.199 319.021L248.316 318.115C247.902 318.018 247.648 317.607 247.747 317.197C247.848 316.787 248.265 316.534 248.678 316.63L252.507 317.524ZM250.114 302.419L246.638 304.436C246.27 304.649 245.798 304.528 245.585 304.165C245.371 303.801 245.496 303.334 245.864 303.121L249.362 301.092C249.626 301.524 249.877 301.966 250.114 302.419Z" fill="#3F3D39"/>
<path fill-rule="evenodd" clip-rule="evenodd" d="M173.571 132.044C173.507 131.945 171.016 132.036 170.823 132.024C167.906 131.843 164.994 131.557 162.091 131.224C152.444 130.117 140.932 129.355 132.972 123.204C123.916 116.206 131.546 105.927 141.464 107.828C153.693 110.173 162.956 122.288 173.461 128.329" fill="#3F3F3F"/>
<path d="M183.537 143.9C190.102 143.9 195.424 138.578 195.424 132.013C195.424 125.448 190.102 120.126 183.537 120.126C176.972 120.126 171.65 125.448 171.65 132.013C171.65 138.578 176.972 143.9 183.537 143.9Z" fill="#9EC10F"/>
<path fill-rule="evenodd" clip-rule="evenodd" d="M178.355 136.581L174.471 139.698C172.712 137.626 171.65 134.942 171.65 132.013C171.65 125.452 176.976 120.126 183.537 120.126C189.612 120.126 194.629 124.693 195.339 130.579C193.351 130.346 191.7 129.118 190.368 126.942C190.256 131.377 186.353 133.07 181.647 133.94C181.45 132.811 180.443 131.95 179.233 131.95C177.881 131.95 176.783 133.023 176.783 134.345C176.783 135.364 177.436 136.236 178.355 136.581Z" fill="#3F3F3F"/>
<path fill-rule="evenodd" clip-rule="evenodd" d="M256.647 198.466C256.647 198.466 307.5 144.806 338.615 146.955C343.6 147.3 357.804 149.232 371.526 159.242C381.428 166.463 389.89 174.782 398.102 183.266C402.119 187.419 403.911 193.242 402.919 198.934C401.929 204.628 398.276 209.503 393.089 212.055C385.621 215.735 376.009 219.251 364.211 221.229C364.211 221.229 366.31 225.023 367.614 227.379C368.294 228.61 368.285 230.106 367.59 231.328C366.515 233.16 364.497 235.949 360.996 238.718C360.996 238.718 360.796 240.021 360.606 241.262C360.516 241.846 360.198 242.369 359.72 242.717C359.242 243.067 358.648 243.209 358.064 243.116C357.173 242.975 356.494 242.243 356.417 241.345C356.373 240.799 356.398 240.223 356.493 239.761C356.493 239.761 358.756 224.183 346.455 211.29C346.455 211.29 343.071 205.984 348.247 202.578L367.592 190.931L355.505 180.766C355.505 180.766 352.916 193.493 338.19 196.282C331.849 197.485 319.883 197.86 312.496 186.608C312.496 186.608 274.076 217.139 263.975 229.211C263.975 229.211 262.438 230.682 261.098 229.729C260.348 229.194 259.356 228.085 260.458 226.405C260.458 226.405 258.649 228.037 257.057 226.949C255.996 226.222 255.178 224.798 256.27 223.125C256.27 223.125 254.422 224.816 252.753 223.621C251.629 222.814 251.369 221.392 251.922 219.771C251.922 219.771 249.967 221.711 248.304 220.585C247.14 219.798 246.578 218.162 247.372 216.972L254.755 206.374L256.647 198.466Z" fill="#B79EDB"/>
<path fill-rule="evenodd" clip-rule="evenodd" d="M360.448 241.809C360.443 241.747 360.448 241.685 360.459 241.621C362.286 232.327 360.642 222.498 360.642 222.498C360.577 222.099 360.846 221.722 361.245 221.654C361.642 221.588 362.021 221.857 362.086 222.256C362.086 222.256 362.513 224.815 362.698 228.576L365.201 229.275C365.589 229.384 365.818 229.787 365.708 230.177C365.6 230.567 365.196 230.794 364.806 230.684L362.758 230.111C362.817 232.316 362.78 234.826 362.537 237.419C362.057 237.851 361.545 238.285 360.996 238.718C360.996 238.718 360.796 240.021 360.606 241.262C360.577 241.453 360.524 241.636 360.448 241.809Z" fill="#4B3072"/>
<path fill-rule="evenodd" clip-rule="evenodd" d="M277.65 178.758C295.242 163.692 320.335 145.693 338.615 146.955C343.6 147.3 357.804 149.232 371.526 159.242C381.428 166.463 389.89 174.782 398.102 183.266C402.119 187.419 403.911 193.242 402.919 198.934C401.929 204.628 398.276 209.503 393.089 212.055C389.405 213.87 385.201 215.645 380.469 217.216L363.166 193.596L367.592 190.931L355.505 180.766C355.505 180.766 352.916 193.493 338.19 196.282C331.849 197.485 319.883 197.86 312.496 186.608C312.496 186.608 304.956 192.598 295.677 200.325L277.65 178.758Z" fill="#A067F5"/>
<path fill-rule="evenodd" clip-rule="evenodd" d="M258.055 227.315L260.192 224.335C260.427 224.006 260.886 223.931 261.213 224.167C261.541 224.403 261.616 224.86 261.382 225.188C261.382 225.188 260.373 226.531 260.458 226.405C260.458 226.405 259.319 227.433 258.055 227.315ZM253.812 224.035L256.016 220.966C256.25 220.638 256.709 220.563 257.037 220.797C257.365 221.033 257.44 221.491 257.205 221.82L256.265 223.131C256.179 223.208 255.068 224.174 253.812 224.035ZM249.283 220.931L251.711 217.545C251.947 217.218 252.405 217.141 252.733 217.377C253.062 217.613 253.137 218.07 252.901 218.398L251.907 219.785C251.761 219.924 250.562 221.028 249.283 220.931Z" fill="#4B3072"/>
<path d="M336.213 143.741C342.257 143.741 347.156 138.842 347.156 132.798C347.156 126.755 342.257 121.856 336.213 121.856C330.17 121.856 325.271 126.755 325.271 132.798C325.271 138.842 330.17 143.741 336.213 143.741Z" fill="#B79EDB"/>
<path fill-rule="evenodd" clip-rule="evenodd" d="M330.782 123.3C332.381 122.382 334.237 121.856 336.214 121.856C342.253 121.856 347.156 126.759 347.156 132.798C347.156 136.851 344.947 140.393 341.669 142.283L338.183 136.203C338.898 136.423 339.726 136.35 340.458 135.933C341.803 135.168 342.315 133.53 341.603 132.278C340.891 131.027 339.22 130.633 337.875 131.399C337.14 131.818 336.651 132.498 336.479 133.233L330.782 123.3Z" fill="#3F3F3F"/>
<path fill-rule="evenodd" clip-rule="evenodd" d="M367.376 190.75L367.416 190.726C367.416 190.726 371.232 193.971 373.476 195.878C373.607 195.989 373.638 196.178 373.551 196.326C373.463 196.474 373.28 196.539 373.121 196.474L364.158 192.997L367.592 190.931L367.376 190.75ZM311.433 187.457L320.06 180.124C320.286 179.932 320.615 179.92 320.855 180.096C321.093 180.272 321.181 180.589 321.063 180.862L316.591 191.374C315.126 190.082 313.746 188.511 312.496 186.608C312.496 186.608 312.119 186.906 311.433 187.457ZM355.527 180.783C356.223 177.936 356.942 173.288 356.669 167.525C356.656 167.278 356.821 167.056 357.061 166.994C357.301 166.931 357.551 167.046 357.661 167.269C359.22 170.468 361.666 177.027 360.529 184.992L355.527 180.783Z" fill="#300B66"/>
<path fill-rule="evenodd" clip-rule="evenodd" d="M276.874 336.75C276.874 336.75 279.515 331.075 284.917 330.074C288.188 294.907 294.559 260.603 305.415 225.389C309.712 211.474 323.735 202.973 338.06 205.597C342.194 206.353 346.092 208.009 349.154 211.062C350.512 212.418 360.267 224.378 356.585 243.063C355.417 248.981 353.034 255.945 351.378 260.561C351.378 260.561 380.239 295.074 384.074 299.66C384.324 299.959 384.357 300.385 384.158 300.722C381.402 305.339 362.547 336.935 362.547 336.935C362.547 336.935 359.236 333.743 360.474 327.142L336.361 300.698C336.361 300.698 324.11 330.273 321.901 335.603C321.696 336.099 321.215 336.423 320.679 336.426C314.403 336.474 276.874 336.75 276.874 336.75Z" fill="url(#paint0_linear_262_341)"/>
<path fill-rule="evenodd" clip-rule="evenodd" d="M285.209 327.025L324.931 328.292L324.332 329.738L285.068 328.486C285.114 327.999 285.161 327.51 285.209 327.025ZM378.53 293.032L359.78 326.383L358.743 325.245L377.526 291.83L378.53 293.032ZM351.779 259.438C351.642 259.824 351.508 260.199 351.378 260.561L352.711 262.153L337.652 302.111L336.362 300.697L334.888 304.255L351.779 259.438ZM344.103 207.514C344.654 207.779 345.194 208.07 345.719 208.387C345.917 209.244 346.336 210.212 347.132 211.209C348.402 212.798 358.051 220.51 356.389 239.498C356.29 240.629 356.433 241.518 356.746 242.196C356.695 242.481 356.642 242.772 356.583 243.063C356.514 243.422 356.439 243.784 356.358 244.15C356.252 244.044 356.148 243.934 356.049 243.813C355.258 242.865 354.749 241.432 354.931 239.37C356.532 221.076 347.213 213.654 345.99 212.124C344.643 210.44 344.186 208.817 344.103 207.514Z" fill="#4B3072"/>
<path fill-rule="evenodd" clip-rule="evenodd" d="M204.964 256.976C196.642 291.473 175.093 330.596 175.093 330.596C179.094 330.206 183.537 336.981 183.537 336.981C183.537 336.981 143.136 336.981 131.485 336.981C130.797 336.981 130.155 336.635 129.776 336.061C129.397 335.486 129.333 334.76 129.604 334.128C144.071 300.051 154.974 256.866 156.372 250.283C165.986 205.04 182.639 204.608 189.828 206.015C191.871 206.414 193.717 207 195.372 207.754C212.588 211.462 239.125 223.446 253.664 234.346C258.227 237.792 260.405 243.553 259.259 249.156C256.772 261.399 251.631 272.688 245.643 285.157C251.559 288.253 253.064 292.082 253.064 292.082C253.064 292.082 222.502 289.701 215.244 289.137C214.859 289.106 214.506 288.91 214.277 288.599C214.048 288.29 213.966 287.895 214.052 287.518C215.32 281.93 219.702 262.637 219.702 262.637C214.44 261.227 209.458 259.437 204.964 256.976Z" fill="url(#paint1_linear_262_341)"/>
<path fill-rule="evenodd" clip-rule="evenodd" d="M135.692 318.768L179.917 321.323C179.606 321.945 179.306 322.538 179.018 323.105L135.02 320.563C135.245 319.966 135.468 319.368 135.692 318.768ZM248.078 280.036L215.785 279.882L216.201 278.054L248.929 278.209C248.649 278.815 248.366 279.425 248.078 280.036ZM188.781 205.838C189.148 205.889 189.498 205.949 189.828 206.015C191.871 206.414 193.717 207 195.372 207.754C196.078 207.906 196.799 208.072 197.535 208.251C199.268 209.608 201.076 211.388 202.74 213.72C208.082 221.211 211.977 234.489 206.541 257.801C206.009 257.534 205.483 257.26 204.964 256.976C204.596 258.5 204.202 260.034 203.787 261.57C203.768 261.449 203.774 261.323 203.807 261.198C210.405 236.297 206.7 222.424 201.25 214.783C195.946 207.346 189.057 205.94 189.057 205.94C188.957 205.92 188.865 205.885 188.781 205.838Z" fill="#65781B"/>
<path fill-rule="evenodd" clip-rule="evenodd" d="M217.674 262.069V262.06C217.674 262.06 223.488 263.76 229.268 264.492C229.576 264.522 229.819 264.771 229.841 265.08C229.865 265.389 229.663 265.671 229.361 265.746C225.739 266.668 220.47 268.008 218.36 268.544L219.702 262.637C219.021 262.454 218.346 262.265 217.674 262.069Z" fill="#65781B"/>
<path fill-rule="evenodd" clip-rule="evenodd" d="M159.235 214.459C159.235 214.459 159.886 216.119 160.992 217.166C161.618 217.759 162.853 218.024 163.957 217.285C166.049 215.885 167.599 212.38 167.249 208.59C167.158 207.609 164.467 199.648 157.506 195.301L163.957 191.602C163.957 191.602 178.611 208.275 199.239 193.94C199.239 193.94 218.157 208.594 246.329 218.969L255.147 206.423C255.147 206.423 266.031 204.355 268.027 201.211C268.329 200.737 268.681 199.478 266.373 199.296C265.33 199.214 257.321 198.14 243.15 190.422C239.263 188.303 226.457 181.802 209.385 164.85C205.794 161.284 182.994 138.328 147.851 164.85C141.684 169.505 117.376 188.347 106.175 206.127C101.53 213.52 102.396 223.105 108.289 229.547C108.289 229.547 108.289 229.547 108.289 229.547C113.681 235.44 122.484 236.707 129.317 232.571C141.641 225.111 159.235 214.459 159.235 214.459Z" fill="#C8D986"/>
<path fill-rule="evenodd" clip-rule="evenodd" d="M159.047 214.573L161.865 212.691C162.293 212.424 162.858 212.554 163.126 212.982C163.394 213.411 163.264 213.974 162.836 214.243L160.041 215.993C159.523 215.193 159.235 214.459 159.235 214.459L159.047 214.573ZM255.075 206.522L255.015 206.61C254.942 206.623 254.903 206.632 254.903 206.632L253.525 208.592C251.971 208.806 250.677 208.974 250.677 208.974C250.176 209.038 249.716 208.683 249.652 208.182C249.588 207.682 249.943 207.223 250.443 207.159C250.443 207.159 252.888 206.844 255.075 206.522Z" fill="black"/>
<path fill-rule="evenodd" clip-rule="evenodd" d="M152.845 218.297L129.317 232.56C122.485 236.701 113.678 235.438 108.285 229.544C108.285 229.544 108.285 229.544 108.286 229.544C102.395 223.103 101.529 213.522 106.172 206.132C117.371 188.352 141.684 169.505 147.851 164.85C182.994 138.328 205.794 161.284 209.385 164.85C226.457 181.802 239.263 188.303 243.15 190.422C245.145 191.507 247.015 192.463 248.763 193.301L234.91 214.342C213.163 204.727 199.239 193.94 199.239 193.94C178.611 208.275 163.958 191.602 163.958 191.602L157.491 195.338C149.727 189.692 139.827 196.381 139.827 196.381L152.845 218.297Z" fill="#A6C52B"/>
<path fill-rule="evenodd" clip-rule="evenodd" d="M139.983 196.28C139.88 196.346 139.827 196.381 139.827 196.381L140.756 197.946C132.898 202.4 125.019 207.194 117.085 212.113C116.655 212.378 116.091 212.247 115.825 211.817C115.559 211.388 115.691 210.823 116.12 210.557C124.119 205.598 132.062 200.768 139.983 196.28ZM198.818 194.229C200.26 192.847 205.311 187.367 206.936 177.084C206.971 176.863 207.158 176.697 207.381 176.689C207.606 176.68 207.804 176.832 207.855 177.05C208.311 179.684 208.697 184.196 207.524 189.697C206.982 192.23 206.111 194.975 204.764 197.842C201.188 195.449 199.239 193.94 199.239 193.94C199.1 194.037 198.959 194.134 198.818 194.229ZM159.026 194.45C157.38 190.6 157.561 187.12 157.941 185.03C158.001 184.708 158.258 184.458 158.583 184.406C158.908 184.353 159.23 184.512 159.387 184.802C161.213 188.248 162.962 190.486 163.942 191.612L159.026 194.45Z" fill="#688419"/>
<path fill-rule="evenodd" clip-rule="evenodd" d="M273.285 211.776C272.515 210.849 272.42 209.489 273.139 208.449C274.003 207.197 275.721 206.883 276.973 207.748L281.212 210.677C282.462 211.54 282.777 213.259 281.911 214.511C281.124 215.651 279.627 216.011 278.421 215.413C279.091 216.319 279.146 217.585 278.47 218.563C277.698 219.683 276.232 220.04 275.048 219.456C275.708 220.345 275.765 221.593 275.099 222.556C274.341 223.654 272.905 224.006 271.741 223.436C272.394 224.313 272.449 225.543 271.796 226.489C270.974 227.679 269.341 227.977 268.152 227.155L264.757 224.809C263.569 223.987 263.269 222.355 264.091 221.167C264.795 220.149 266.093 219.783 267.198 220.215C266.452 219.32 266.36 218.003 267.054 216.998C267.769 215.962 269.091 215.59 270.214 216.032C269.457 215.12 269.363 213.78 270.07 212.759C270.798 211.705 272.141 211.328 273.285 211.776Z" fill="#C8D986"/>
<path fill-rule="evenodd" clip-rule="evenodd" d="M266.624 218.037L274.089 223.431C273.364 223.788 272.495 223.806 271.741 223.436C271.79 223.502 267.158 220.201 267.198 220.215C266.691 219.608 266.486 218.804 266.624 218.037ZM269.618 213.905C269.632 213.914 269.645 213.923 269.658 213.932L277.284 219.441C277.308 219.458 277.33 219.476 277.35 219.496C276.631 219.818 275.783 219.818 275.048 219.456C275.125 219.56 270.123 215.995 270.214 216.032C269.72 215.437 269.508 214.659 269.618 213.905ZM272.687 209.569C272.72 209.586 272.751 209.606 272.782 209.628L280.408 215.137C280.538 215.23 280.628 215.358 280.674 215.499C279.96 215.786 279.138 215.77 278.421 215.413C278.465 215.473 273.263 211.767 273.285 211.776C272.773 211.158 272.559 210.349 272.687 209.569Z" fill="#414342"/>
<defs>
<linearGradient id="paint0_linear_262_341" x1="330.682" y1="270.996" x2="264.386" y2="116.29" gradientUnits="userSpaceOnUse">
<stop stop-color="#A067F5"/>
<stop offset="0.32" stop-color="white"/>
</linearGradient>
<linearGradient id="paint1_linear_262_341" x1="205.192" y1="300.894" x2="303.685" y2="224.901" gradientUnits="userSpaceOnUse">
<stop stop-color="#E0E0E0"/>
<stop offset="0.52" stop-color="#CCF330"/>
<stop offset="1" stop-color="white"/>
</linearGradient>
</defs>
</svg>
